<?xml version="1.0" encoding="UTF-8" standalone="no"?>
<svg
   version="1.0"
   width="75.000000pt"
   height="75.000000pt"
   viewBox="0 0 75.000000 75.000000"
   preserveAspectRatio="xMidYMid meet"
   id="svg6"
   sodipodi:docname="logo.svg"
   inkscape:version="1.1.2 (b8e25be833, 2022-02-05)"
   xmlns:inkscape="http://www.inkscape.org/namespaces/inkscape"
   xmlns:sodipodi="http://sodipodi.sourceforge.net/DTD/sodipodi-0.dtd"
   xmlns="http://www.w3.org/2000/svg"
   xmlns:svg="http://www.w3.org/2000/svg">
  <defs
     id="defs10" />
  <sodipodi:namedview
     id="namedview8"
     pagecolor="#ffffff"
     bordercolor="#666666"
     borderopacity="1.0"
     inkscape:pageshadow="2"
     inkscape:pageopacity="0.0"
     inkscape:pagecheckerboard="0"
     inkscape:document-units="pt"
     showgrid="false"
     inkscape:zoom="5.19"
     inkscape:cx="50"
     inkscape:cy="50.096339"
     inkscape:window-width="1366"
     inkscape:window-height="705"
     inkscape:window-x="-8"
     inkscape:window-y="-8"
     inkscape:window-maximized="1"
     inkscape:current-layer="svg6" />
  <g
     transform="translate(0.000000,75.000000) scale(0.100000,-0.100000)"
     fill="#000000"
     stroke="none"
     id="g4">
    <path
       d="M20 730 c-19 -19 -20 -33 -20 -355 0 -322 1 -336 20 -355 19 -19 33 -20 355 -20 322 0 336 1 355 20 19 19 20 33 20 355 0 322 -1 336 -20 355 -19 19 -33 20 -355 20 -322 0 -336 -1 -355 -20z m304 -174 c13 -17 30 -48 37 -69 l15 -37 13 37 c77 215 209 84 228 -225 l6 -102 -31 0 -32 0 0 63 c0 88 -18 220 -38 281 -20 59 -48 69 -70 24 -21 -44 -42 -174 -42 -259 l0 -79 -35 0 -35 0 0 78 c-1 87 -21 216 -42 259 -22 46 -50 37 -70 -23 -20 -61 -38 -193 -38 -281 l0 -63 -32 0 -31 0 6 102 c12 209 76 350 149 330 10 -2 29 -19 42 -36z"
       id="path2" />
  </g>
  <path
     style="fill:#264f36;stroke-width:1.44509;fill-opacity:1"
     d="M 27.071291,99.797657 C 6.699178,99.621642 4.9356763,99.42515 2.6584461,97.077557 1.2234988,95.598272 0.83561532,94.049842 0.44500669,88.241513 c -0.36397093,-5.412228 -0.36397093,-71.070798 0,-76.483026 C 0.83561532,5.950158 1.2234988,4.4017281 2.6584461,2.9224428 4.0836393,1.4532131 5.5434247,0.95633355 9.5375723,0.58093651 15.767957,-0.00463721 84.435491,-0.0120631 90.366089,0.57219549 c 4.199718,0.41373952 5.56515,0.88055891 6.993695,2.39103571 1.450068,1.5332316 1.782255,2.8724792 2.204204,8.8864798 0.348632,4.969025 0.348482,71.327709 -1.73e-4,76.300578 -0.416131,5.935287 -0.75836,7.346139 -2.140322,8.823566 -2.333686,2.494902 -3.478472,2.614706 -27.09594,2.835619 -19.261985,0.180173 -21.092919,0.179674 -43.256262,-0.01181 z m -1.73095,-24.604979 c 0.011,-12.587164 1.230464,-25.136194 3.47795,-35.789981 1.350726,-6.40287 2.820684,-10.237046 4.678549,-12.203337 1.855004,-1.963264 3.701651,-1.512206 5.428543,1.325964 2.293898,3.77005 4.299482,12.727029 5.699609,25.454572 0.33284,3.025591 0.427896,5.332231 0.504962,12.253245 l 0.09493,8.526011 h 4.796035 4.796033 v -7.283258 c 0,-9.289291 0.415096,-14.723065 1.741701,-22.799526 2.059383,-12.537672 4.586925,-18.664807 7.699532,-18.664807 2.684572,0 5.073177,4.619923 6.92352,13.391136 2.252125,10.675783 3.463507,23.177467 3.477291,35.88632 l 0.0038,3.516378 h 4.238921 c 3.952975,0 4.238921,-0.02339 4.238921,-0.346711 0,-1.310239 -1.021478,-16.874241 -1.260776,-19.210129 C 79.86968,39.626193 74.163888,25.151821 67.062015,21.658813 65.663407,20.970915 65.39516,20.905588 63.969171,20.905588 c -1.419098,0 -1.696194,0.06661 -3.040202,0.730857 -3.824574,1.890208 -6.840453,6.598308 -9.881586,15.426179 l -0.919641,2.669561 -1.379118,-3.440274 C 46.88806,31.650645 46.910738,31.700094 45.560204,29.339615 43.372198,25.515397 40.54221,22.358493 38.333145,21.277699 37.3722,20.807553 37.128719,20.770252 35.500266,20.843707 c -1.613455,0.07278 -1.913179,0.149809 -3.176154,0.816303 -6.849813,3.614751 -12.308688,17.948283 -14.20539,37.299528 -0.236246,2.410319 -1.256699,18.224876 -1.25882,19.50867 -5.14e-4,0.310929 0.329536,0.337187 4.238364,0.337187 h 4.238921 l 0.0032,-3.612717 z"
     id="path952"
     transform="scale(0.75)" />
</svg>
